<svg width="173" height="42" viewBox="0 0 173 42" fill="none" xmlns="http://www.w3.org/2000/svg">
<path d="M26.044 25V16.6H27.628V23.56H31.468V25H26.044ZM35.5306 25.168C34.4746 25.168 33.6346 24.88 33.0106 24.304C32.3866 23.72 32.0746 22.888 32.0746 21.808V19.792C32.0746 18.712 32.3866 17.884 33.0106 17.308C33.6346 16.724 34.4746 16.432 35.5306 16.432C36.5866 16.432 37.4266 16.724 38.0506 17.308C38.6746 17.884 38.9866 18.712 38.9866 19.792V21.808C38.9866 22.888 38.6746 23.72 38.0506 24.304C37.4266 24.88 36.5866 25.168 35.5306 25.168ZM35.5306 23.752C36.1226 23.752 36.5826 23.58 36.9106 23.236C37.2386 22.892 37.4026 22.432 37.4026 21.856V19.744C37.4026 19.168 37.2386 18.708 36.9106 18.364C36.5826 18.02 36.1226 17.848 35.5306 17.848C34.9466 17.848 34.4866 18.02 34.1506 18.364C33.8226 18.708 33.6586 19.168 33.6586 19.744V21.856C33.6586 22.432 33.8226 22.892 34.1506 23.236C34.4866 23.58 34.9466 23.752 35.5306 23.752ZM43.28 25.168C42.704 25.168 42.18 25.04 41.708 24.784C41.244 24.52 40.872 24.14 40.592 23.644C40.32 23.14 40.184 22.528 40.184 21.808V19.792C40.184 18.712 40.488 17.884 41.096 17.308C41.704 16.724 42.528 16.432 43.568 16.432C44.6 16.432 45.396 16.708 45.956 17.26C46.524 17.804 46.808 18.544 46.808 19.48V19.528H45.248V19.432C45.248 19.136 45.184 18.868 45.056 18.628C44.936 18.388 44.752 18.2 44.504 18.064C44.256 17.92 43.944 17.848 43.568 17.848C43.008 17.848 42.568 18.02 42.248 18.364C41.928 18.708 41.768 19.176 41.768 19.768V21.832C41.768 22.416 41.928 22.888 42.248 23.248C42.568 23.6 43.016 23.776 43.592 23.776C44.168 23.776 44.588 23.624 44.852 23.32C45.116 23.016 45.248 22.632 45.248 22.168V22.048H43.256V20.704H46.808V25H45.344V24.196H45.128C45.072 24.332 44.98 24.476 44.852 24.628C44.732 24.78 44.548 24.908 44.3 25.012C44.052 25.116 43.712 25.168 43.28 25.168ZM48.3213 25V16.6H49.9053V25H48.3213ZM51.4854 25V16.6H54.4974L56.1654 23.92H56.3814V16.6H57.9414V25H54.9294L53.2614 17.68H53.0454V25H51.4854ZM64.152 25V18.04H61.704V16.6H68.184V18.04H65.736V25H64.152ZM72.1869 25.168C71.1309 25.168 70.2909 24.88 69.6669 24.304C69.0429 23.72 68.7309 22.888 68.7309 21.808V19.792C68.7309 18.712 69.0429 17.884 69.6669 17.308C70.2909 16.724 71.1309 16.432 72.1869 16.432C73.2429 16.432 74.0829 16.724 74.7069 17.308C75.3309 17.884 75.6429 18.712 75.6429 19.792V21.808C75.6429 22.888 75.3309 23.72 74.7069 24.304C74.0829 24.88 73.2429 25.168 72.1869 25.168ZM72.1869 23.752C72.7789 23.752 73.2389 23.58 73.5669 23.236C73.8949 22.892 74.0589 22.432 74.0589 21.856V19.744C74.0589 19.168 73.8949 18.708 73.5669 18.364C73.2389 18.02 72.7789 17.848 72.1869 17.848C71.6029 17.848 71.1429 18.02 70.8069 18.364C70.4789 18.708 70.3149 19.168 70.3149 19.744V21.856C70.3149 22.432 70.4789 22.892 70.8069 23.236C71.1429 23.58 71.6029 23.752 72.1869 23.752ZM79.3625 25L81.5705 16.6H84.3305L86.5385 25H84.9065L84.4505 23.152H81.4505L80.9945 25H79.3625ZM81.8225 21.688H84.0785L83.0585 17.596H82.8425L81.8225 21.688ZM87.304 25V23.608H88.408V17.992H87.304V16.6H90.76C91.888 16.6 92.744 16.888 93.328 17.464C93.92 18.032 94.216 18.88 94.216 20.008V21.592C94.216 22.72 93.92 23.572 93.328 24.148C92.744 24.716 91.888 25 90.76 25H87.304ZM89.992 23.56H90.784C91.424 23.56 91.892 23.392 92.188 23.056C92.484 22.72 92.632 22.248 92.632 21.64V19.96C92.632 19.344 92.484 18.872 92.188 18.544C91.892 18.208 91.424 18.04 90.784 18.04H89.992V23.56ZM95.0266 25V23.608H96.1306V17.992H95.0266V16.6H98.4826C99.6106 16.6 100.467 16.888 101.051 17.464C101.643 18.032 101.939 18.88 101.939 20.008V21.592C101.939 22.72 101.643 23.572 101.051 24.148C100.467 24.716 99.6106 25 98.4826 25H95.0266ZM97.7146 23.56H98.5066C99.1466 23.56 99.6146 23.392 99.9106 23.056C100.207 22.72 100.355 22.248 100.355 21.64V19.96C100.355 19.344 100.207 18.872 99.9106 18.544C99.6146 18.208 99.1466 18.04 98.5066 18.04H97.7146V23.56ZM106.306 25V16.6H109.954C110.482 16.6 110.942 16.692 111.334 16.876C111.726 17.06 112.03 17.32 112.246 17.656C112.462 17.992 112.57 18.388 112.57 18.844V18.988C112.57 19.492 112.45 19.9 112.21 20.212C111.97 20.524 111.674 20.752 111.322 20.896V21.112C111.642 21.128 111.89 21.24 112.066 21.448C112.242 21.648 112.33 21.916 112.33 22.252V25H110.746V22.48C110.746 22.288 110.694 22.132 110.59 22.012C110.494 21.892 110.33 21.832 110.098 21.832H107.89V25H106.306ZM107.89 20.392H109.786C110.162 20.392 110.454 20.292 110.662 20.092C110.878 19.884 110.986 19.612 110.986 19.276V19.156C110.986 18.82 110.882 18.552 110.674 18.352C110.466 18.144 110.17 18.04 109.786 18.04H107.89V20.392ZM113.888 25V16.6H119.288V18.04H115.472V20.044H118.952V21.484H115.472V23.56H119.36V25H113.888ZM122.092 25L119.956 16.6H121.588L123.364 23.98H123.532L125.308 16.6H126.94L124.804 25H122.092ZM127.95 25V16.6H129.534V25H127.95ZM131.114 25V16.6H136.514V18.04H132.698V20.044H136.178V21.484H132.698V23.56H136.586V25H131.114ZM138.431 25L137.327 16.6H138.899L139.715 23.896H139.931L140.987 16.6H143.723L144.779 23.896H144.995L145.811 16.6H147.383L146.279 25H143.543L142.463 17.536H142.247L141.167 25H138.431Z" fill="white"/>
<rect x="0.5" y="0.5" width="172" height="41" rx="14.5" stroke="url(#paint0_linear_246_1968)"/>
<defs>
<linearGradient id="paint0_linear_246_1968" x1="173" y1="21" x2="-5.68654e-07" y2="21" gradientUnits="userSpaceOnUse">
<stop stop-color="#FF9085"/>
<stop offset="1" stop-color="#FB6FBB"/>
</linearGradient>
</defs>
</svg>
