<svg width="110" height="32" viewBox="0 0 110 32" fill="none" xmlns="http://www.w3.org/2000/svg">
<path d="M28.9787 19.14C28.4387 19.14 27.962 19.0433 27.5487 18.85C27.1353 18.6567 26.812 18.38 26.5787 18.02C26.3453 17.66 26.2287 17.2267 26.2287 16.72V16.44H27.5287V16.72C27.5287 17.14 27.6587 17.4567 27.9187 17.67C28.1787 17.8767 28.532 17.98 28.9787 17.98C29.432 17.98 29.7687 17.89 29.9887 17.71C30.2153 17.53 30.3287 17.3 30.3287 17.02C30.3287 16.8267 30.272 16.67 30.1587 16.55C30.052 16.43 29.892 16.3333 29.6787 16.26C29.472 16.18 29.2187 16.1067 28.9187 16.04L28.6887 15.99C28.2087 15.8833 27.7953 15.75 27.4487 15.59C27.1087 15.4233 26.8453 15.2067 26.6587 14.94C26.4787 14.6733 26.3887 14.3267 26.3887 13.9C26.3887 13.4733 26.4887 13.11 26.6887 12.81C26.8953 12.5033 27.182 12.27 27.5487 12.11C27.922 11.9433 28.3587 11.86 28.8587 11.86C29.3587 11.86 29.802 11.9467 30.1887 12.12C30.582 12.2867 30.8887 12.54 31.1087 12.88C31.3353 13.2133 31.4487 13.6333 31.4487 14.14V14.44H30.1487V14.14C30.1487 13.8733 30.0953 13.66 29.9887 13.5C29.8887 13.3333 29.742 13.2133 29.5487 13.14C29.3553 13.06 29.1253 13.02 28.8587 13.02C28.4587 13.02 28.162 13.0967 27.9687 13.25C27.782 13.3967 27.6887 13.6 27.6887 13.86C27.6887 14.0333 27.732 14.18 27.8187 14.3C27.912 14.42 28.0487 14.52 28.2287 14.6C28.4087 14.68 28.6387 14.75 28.9187 14.81L29.1487 14.86C29.6487 14.9667 30.082 15.1033 30.4487 15.27C30.822 15.4367 31.112 15.6567 31.3187 15.93C31.5253 16.2033 31.6287 16.5533 31.6287 16.98C31.6287 17.4067 31.5187 17.7833 31.2987 18.11C31.0853 18.43 30.7787 18.6833 30.3787 18.87C29.9853 19.05 29.5187 19.14 28.9787 19.14ZM32.6131 19V12H33.9331V14.89H36.5331V12H37.8531V19H36.5331V16.09H33.9331V19H32.6131ZM41.8956 19.14C41.0156 19.14 40.3156 18.9 39.7956 18.42C39.2756 17.9333 39.0156 17.24 39.0156 16.34V14.66C39.0156 13.76 39.2756 13.07 39.7956 12.59C40.3156 12.1033 41.0156 11.86 41.8956 11.86C42.7756 11.86 43.4756 12.1033 43.9956 12.59C44.5156 13.07 44.7756 13.76 44.7756 14.66V16.34C44.7756 17.24 44.5156 17.9333 43.9956 18.42C43.4756 18.9 42.7756 19.14 41.8956 19.14ZM41.8956 17.96C42.389 17.96 42.7723 17.8167 43.0456 17.53C43.319 17.2433 43.4556 16.86 43.4556 16.38V14.62C43.4556 14.14 43.319 13.7567 43.0456 13.47C42.7723 13.1833 42.389 13.04 41.8956 13.04C41.409 13.04 41.0256 13.1833 40.7456 13.47C40.4723 13.7567 40.3356 14.14 40.3356 14.62V16.38C40.3356 16.86 40.4723 17.2433 40.7456 17.53C41.0256 17.8167 41.409 17.96 41.8956 17.96ZM46.4348 19L45.5148 12H46.8248L47.5048 18.08H47.6848L48.5648 12H50.8448L51.7248 18.08H51.9048L52.5848 12H53.8948L52.9748 19H50.6948L49.7948 12.78H49.6148L48.7148 19H46.4348ZM57.3397 19V12H59.7897L60.9997 18.1H61.1797L62.3897 12H64.8397V19H63.5597V12.97H63.3797L62.1797 19H59.9997L58.7997 12.97H58.6197V19H57.3397ZM68.878 19.14C67.998 19.14 67.298 18.9 66.778 18.42C66.258 17.9333 65.998 17.24 65.998 16.34V14.66C65.998 13.76 66.258 13.07 66.778 12.59C67.298 12.1033 67.998 11.86 68.878 11.86C69.758 11.86 70.458 12.1033 70.978 12.59C71.498 13.07 71.758 13.76 71.758 14.66V16.34C71.758 17.24 71.498 17.9333 70.978 18.42C70.458 18.9 69.758 19.14 68.878 19.14ZM68.878 17.96C69.3714 17.96 69.7547 17.8167 70.028 17.53C70.3014 17.2433 70.438 16.86 70.438 16.38V14.62C70.438 14.14 70.3014 13.7567 70.028 13.47C69.7547 13.1833 69.3714 13.04 68.878 13.04C68.3914 13.04 68.008 13.1833 67.728 13.47C67.4547 13.7567 67.318 14.14 67.318 14.62V16.38C67.318 16.86 67.4547 17.2433 67.728 17.53C68.008 17.8167 68.3914 17.96 68.878 17.96ZM72.9159 19V12H75.9559C76.3959 12 76.7792 12.0767 77.1059 12.23C77.4325 12.3833 77.6859 12.6 77.8659 12.88C78.0459 13.16 78.1359 13.49 78.1359 13.87V13.99C78.1359 14.41 78.0359 14.75 77.8359 15.01C77.6359 15.27 77.3892 15.46 77.0959 15.58V15.76C77.3625 15.7733 77.5692 15.8667 77.7159 16.04C77.8625 16.2067 77.9359 16.43 77.9359 16.71V19H76.6159V16.9C76.6159 16.74 76.5725 16.61 76.4859 16.51C76.4059 16.41 76.2692 16.36 76.0759 16.36H74.2359V19H72.9159ZM74.2359 15.16H75.8159C76.1292 15.16 76.3725 15.0767 76.5459 14.91C76.7259 14.7367 76.8159 14.51 76.8159 14.23V14.13C76.8159 13.85 76.7292 13.6267 76.5559 13.46C76.3825 13.2867 76.1359 13.2 75.8159 13.2H74.2359V15.16ZM79.2342 19V12H83.7342V13.2H80.5542V14.87H83.4542V16.07H80.5542V17.8H83.7942V19H79.2342Z" fill="white"/>
<rect x="0.5" y="0.5" width="109" height="31" rx="14.5" stroke="url(#paint0_linear_298_1047)"/>
<defs>
<linearGradient id="paint0_linear_298_1047" x1="110" y1="16" x2="-3.61572e-07" y2="16" gradientUnits="userSpaceOnUse">
<stop stop-color="#FF9085"/>
<stop offset="1" stop-color="#FB6FBB"/>
</linearGradient>
</defs>
</svg>
