<svg xmlns="http://www.w3.org/2000/svg" xmlns:xlink="http://www.w3.org/1999/xlink" viewBox="0 0 200 38.28"><defs><style>.cls-1{fill:url(#Adsız_degrade_14-2);}.cls-2{fill:url(#Adsız_degrade_14-8);}.cls-3{fill:url(#linear-gradient-2);mix-blend-mode:multiply;opacity:.3;}.cls-4{fill:url(#Adsız_degrade_14-4);}.cls-5{isolation:isolate;}.cls-6{fill:url(#Adsız_degrade_14-6);}.cls-7{fill:#d8dee8;}.cls-8{fill:url(#Adsız_degrade_14-7);}.cls-9{clip-path:url(#clippath);}.cls-10{fill:url(#Adsız_degrade_14);}.cls-11{fill:url(#Adsız_degrade_14-5);}.cls-12{fill:url(#linear-gradient-3);}.cls-13{fill:url(#linear-gradient);}.cls-14{fill:url(#Adsız_degrade_14-3);}</style><linearGradient id="linear-gradient" x1="0" y1="14.51" x2="29.03" y2="14.51" gradientUnits="userSpaceOnUse"><stop offset="0" stop-color="#aa80f9"/><stop offset="1" stop-color="#6165d7"/></linearGradient><clipPath id="clippath"><circle class="cls-13" cx="14.51" cy="14.51" r="14.51"/></clipPath><linearGradient id="linear-gradient-2" x1="23.03" y1="-5.57" x2="-10.74" y2="63.11" xlink:href="#linear-gradient"/><linearGradient id="linear-gradient-3" x1="2.98" y1="14.89" x2="25.84" y2="14.89" gradientUnits="userSpaceOnUse"><stop offset="0" stop-color="#444b8c"/><stop offset="1" stop-color="#26264f"/></linearGradient><linearGradient id="Adsız_degrade_14" x1="47.7" y1=".08" x2="47.7" y2="28.95" gradientUnits="userSpaceOnUse"><stop offset="0" stop-color="#444b8c"/><stop offset="1" stop-color="#26264f"/></linearGradient><linearGradient id="Adsız_degrade_14-2" x1="70.88" y1="9.49" x2="70.88" y2="38.28" xlink:href="#Adsız_degrade_14"/><linearGradient id="Adsız_degrade_14-3" x1="91.6" y1="9.35" x2="91.6" y2="38.15" xlink:href="#Adsız_degrade_14"/><linearGradient id="Adsız_degrade_14-4" x1="110.68" y1="9.35" x2="110.68" y2="29.91" xlink:href="#Adsız_degrade_14"/><linearGradient id="Adsız_degrade_14-5" x1="125.83" y1="9.35" x2="125.83" y2="29.29" xlink:href="#Adsız_degrade_14"/><linearGradient id="Adsız_degrade_14-6" x1="143.67" y1=".56" x2="143.67" y2="29.43" xlink:href="#Adsız_degrade_14"/><linearGradient id="Adsız_degrade_14-7" x1="166.95" y1=".56" x2="166.95" y2="29.43" xlink:href="#Adsız_degrade_14"/><linearGradient id="Adsız_degrade_14-8" x1="189.86" y1=".56" x2="189.86" y2="29.43" xlink:href="#Adsız_degrade_14"/></defs><g class="cls-5"><g id="katman_2"><g id="katman_1"><circle class="cls-13" cx="14.51" cy="14.51" r="14.51"/><circle class="cls-13" cx="14.51" cy="14.51" r="14.51"/><g class="cls-9"><path class="cls-3" d="m24.65,30.67l-23.42-.1c-1.17,0-2.16-.84-2.16-1.86V3.97C-.93,2.94.07,2.17,1.23,2.24l3.9.24c2.3,2.71,3.62,6.36,2.91,10.45-.12.69-.02,1.31.24,1.88.41.91,1.24,1.69,2.32,2.42.56.38,1.19.75,1.86,1.12,1.54.84,3.3,1.65,4.99,2.57.62.33,1.22.68,1.81,1.05.27.17.54.35.8.53.68.47,1.32.97,1.89,1.52.53.51,1,1.05,1.4,1.64.92,1.37,1.44,3,1.31,5.01Z"/></g><path class="cls-12" d="m5.89,11.14h17.03c1.61,0,2.91,1.3,2.91,2.91h0c0,2.53-2.05,4.58-4.58,4.58H7.56c-2.53,0-4.58-2.05-4.58-4.58h0c0-1.61,1.3-2.91,2.91-2.91Z"/><path class="cls-7" d="m11.94,15.98c.15-.21.24-.44.24-.7,0-.82-.87-1.48-1.94-1.48s-1.94.66-1.94,1.48c0,.25.09.49.24.7h3.41Z"/><path class="cls-7" d="m21.7,15.98c.15-.21.24-.44.24-.7,0-.82-.87-1.48-1.94-1.48s-1.94.66-1.94,1.48c0,.25.09.49.24.7h3.41Z"/><path class="cls-10" d="m36.61.08h5.47v12.01h11.24V.08h5.47v28.87h-5.47v-12.09h-11.24v12.09h-5.47V.08Z"/><path class="cls-1" d="m65.11,38.28v-4.7h4.12l1.15-4.66h-2.7l-6.7-19.44h5.62l4.7,14.78h.15l3.73-14.78h5.58l-7.66,28.8h-8.01Z"/><path class="cls-14" d="m88.48,29.29v8.85h-5.39V9.35h17.02v19.94h-11.63Zm0-4.7h6.43v-10.63h-6.43v10.63Z"/><path class="cls-4" d="m118.7,16.4v5.7h-10.89v3.62h10.05v4.2h-15.21v-12.78c0-4.89,3.2-7.78,8.16-7.78s7.89,2.77,7.89,7.04Zm-10.89.5v1.35h6.01v-1.42c0-1.81-1.19-3.04-3-3.04s-3,1.15-3,3.12Z"/><path class="cls-11" d="m130.64,9.35v4.74h-4.23v15.21h-5.39V9.35h9.62Z"/><path class="cls-6" d="m132.97.56h20.79v5.89h-14.01v17.02h7.93v-5.12h-4.27v-5.85h10.97v16.94h-21.4V.56Z"/><path class="cls-8" d="m177.43,19.69h-14.17v9.74h-6.78V.56h20.94v19.13Zm-6.78-13.24h-7.39v7.43h7.39v-7.43Z"/><path class="cls-2" d="m186.45,6.45h-6.74V.56h20.29v5.89h-6.78v22.98h-6.78V6.45Z"/></g></g></g></svg>