<?xml version="1.0" encoding="UTF-8"?><svg xmlns="http://www.w3.org/2000/svg" xmlns:xlink="http://www.w3.org/1999/xlink" viewBox="0 0 154.8 158.48"><defs><style>.cls-1{fill:url(#linear-gradient-2);mix-blend-mode:multiply;opacity:.3;}.cls-2{isolation:isolate;}.cls-3{fill:#d8dee8;}.cls-4{clip-path:url(#clippath);}.cls-5{fill:url(#linear-gradient-3);}.cls-6{fill:url(#linear-gradient);}</style><linearGradient id="linear-gradient" x1="4.8" y1="75" x2="154.8" y2="75" gradientUnits="userSpaceOnUse"><stop offset="0" stop-color="#aa80f9"/><stop offset="1" stop-color="#6165d7"/></linearGradient><clipPath id="clippath"><circle class="cls-6" cx="79.8" cy="75" r="75"/></clipPath><linearGradient id="linear-gradient-2" x1="123.8" y1="-28.79" x2="-50.71" y2="326.13" xlink:href="#linear-gradient"/><linearGradient id="linear-gradient-3" x1="20.21" y1="76.93" x2="138.33" y2="76.93" gradientUnits="userSpaceOnUse"><stop offset="0" stop-color="#444b8c"/><stop offset="1" stop-color="#26264f"/></linearGradient></defs><g class="cls-2"><g id="katman_2"><g id="katman_1"><circle class="cls-6" cx="79.8" cy="75" r="75"/><circle class="cls-6" cx="79.8" cy="75" r="75"/><g class="cls-4"><path class="cls-1" d="m132.2,158.48l-121.02-.5c-6.04-.02-11.18-4.34-11.18-9.63V20.51c0-5.3,5.14-9.29,11.18-8.92l20.13,1.22c11.89,14,18.69,32.84,15.02,54.02-.61,3.55-.1,6.76,1.25,9.72,2.13,4.68,6.43,8.73,12,12.52,2.89,1.98,6.15,3.88,9.6,5.77,7.95,4.33,17.06,8.55,25.8,13.3,3.18,1.72,6.31,3.52,9.33,5.42,1.4.88,2.79,1.79,4.13,2.72,3.52,2.42,6.8,5.01,9.76,7.83,2.74,2.62,5.19,5.44,7.24,8.49,4.77,7.09,7.44,15.51,6.76,25.88Z"/></g><path class="cls-5" d="m35.25,57.57h88.03c8.3,0,15.05,6.74,15.05,15.05h0c0,13.07-10.61,23.68-23.68,23.68H43.89c-13.07,0-23.68-10.61-23.68-23.68h0c0-8.3,6.74-15.05,15.05-15.05Z"/><path class="cls-3" d="m66.49,82.57c.75-1.08,1.22-2.29,1.22-3.6,0-4.23-4.49-7.67-10.02-7.67s-10.02,3.43-10.02,7.67c0,1.31.47,2.52,1.22,3.6h17.6Z"/><path class="cls-3" d="m116.96,82.57c.75-1.08,1.22-2.29,1.22-3.6,0-4.23-4.49-7.67-10.02-7.67s-10.02,3.43-10.02,7.67c0,1.31.47,2.52,1.22,3.6h17.6Z"/></g></g></g></svg>