<?xml version="1.0" encoding="UTF-8"?><svg xmlns="http://www.w3.org/2000/svg" xmlns:xlink="http://www.w3.org/1999/xlink" viewBox="0 0 150 150"><defs><style>.cls-1{fill:#fff;}.cls-2{fill:url(#linear-gradient-2);}.cls-2,.cls-3{mix-blend-mode:multiply;opacity:.3;}.cls-4{fill:url(#linear-gradient-6);}.cls-5{isolation:isolate;}.cls-6{fill:url(#linear-gradient-10);}.cls-7{fill:url(#linear-gradient-5);}.cls-8{clip-path:url(#clippath);}.cls-9{fill:url(#linear-gradient-7);}.cls-10{fill:url(#linear-gradient-9);}.cls-11{fill:url(#linear-gradient-3);}.cls-12{fill:url(#linear-gradient);}.cls-13{fill:url(#linear-gradient-4);}.cls-14{fill:url(#linear-gradient-8);}</style><linearGradient id="linear-gradient" x1="0" y1="75" x2="150" y2="75" gradientUnits="userSpaceOnUse"><stop offset="0" stop-color="#ffc444"/><stop offset="1" stop-color="#f36f56"/></linearGradient><clipPath id="clippath"><circle class="cls-12" cx="75" cy="75" r="75"/></clipPath><linearGradient id="linear-gradient-2" x1="-4.8" y1="85.02" x2="127.5" y2="85.02" xlink:href="#linear-gradient"/><linearGradient id="linear-gradient-3" x1="34.73" y1="76.55" x2="76.69" y2="76.55" xlink:href="#linear-gradient"/><linearGradient id="linear-gradient-4" x1="53.86" y1="78.55" x2="58.77" y2="78.55" xlink:href="#linear-gradient"/><linearGradient id="linear-gradient-5" x1="49.61" y1="78.55" x2="63.02" y2="78.55" xlink:href="#linear-gradient"/><linearGradient id="linear-gradient-6" x1="84.3" y1="77.45" x2="126.27" y2="77.45" xlink:href="#linear-gradient"/><linearGradient id="linear-gradient-7" x1="103.44" y1="78.55" x2="108.34" y2="78.55" xlink:href="#linear-gradient"/><linearGradient id="linear-gradient-8" x1="99.19" y1="78.55" x2="112.59" y2="78.55" xlink:href="#linear-gradient"/><linearGradient id="linear-gradient-9" x1="36.73" y1="74.55" x2="78.69" y2="74.55" gradientUnits="userSpaceOnUse"><stop offset="0" stop-color="#444b8c"/><stop offset="1" stop-color="#26264f"/></linearGradient><linearGradient id="linear-gradient-10" x1="86.3" y1="75.45" x2="128.27" y2="75.45" xlink:href="#linear-gradient-9"/></defs><g class="cls-5"><g id="katman_2"><g id="katman_1"><circle class="cls-12" cx="75" cy="75" r="75"/><circle class="cls-12" cx="75" cy="75" r="75"/><g class="cls-8"><path class="cls-2" d="m127.4,158.48l-121.02-.5c-6.04-.02-11.18-4.34-11.18-9.63V20.51C-4.8,15.22.34,11.22,6.38,11.59l20.13,1.22c11.89,14,18.69,32.84,15.02,54.02-.61,3.55-.1,6.76,1.25,9.72,2.13,4.68,6.43,8.73,12,12.52,2.89,1.98,6.15,3.88,9.6,5.77,7.95,4.33,17.06,8.55,25.8,13.3,3.18,1.72,6.31,3.52,9.33,5.42,1.4.88,2.79,1.79,4.13,2.72,3.52,2.42,6.8,5.01,9.76,7.83,2.74,2.62,5.19,5.44,7.24,8.49,4.77,7.09,7.44,15.51,6.76,25.88Z"/></g><g class="cls-3"><path class="cls-11" d="m74.13,88.34c1.58-2.26,2.56-4.79,2.56-7.53,0-8.87-9.39-16.05-20.98-16.05s-20.98,7.19-20.98,16.05c0,2.74.98,5.28,2.56,7.53h36.85Z"/><path class="cls-13" d="m58.77,82.8c0,1.35-1.1,2.45-2.45,2.45h0c-1.35,0-2.45-1.1-2.45-2.45v-8.5c0-1.35,1.1-2.45,2.45-2.45h0c1.35,0,2.45,1.1,2.45,2.45v8.5Z"/><path class="cls-7" d="m63.02,78.55c0,1.35-1.1,2.45-2.45,2.45h-8.5c-1.35,0-2.45-1.1-2.45-2.45h0c0-1.35,1.1-2.45,2.45-2.45h8.5c1.35,0,2.45,1.1,2.45,2.45h0Z"/><path class="cls-4" d="m123.71,89.25c1.58-2.26,2.56-4.79,2.56-7.53,0-8.87-9.39-16.05-20.99-16.05s-20.98,7.19-20.98,16.05c0,2.74.98,5.28,2.56,7.53h36.85Z"/><path class="cls-9" d="m108.34,82.8c0,1.35-1.1,2.45-2.45,2.45h0c-1.35,0-2.45-1.1-2.45-2.45v-8.5c0-1.35,1.1-2.45,2.45-2.45h0c1.35,0,2.45,1.1,2.45,2.45v8.5Z"/><path class="cls-14" d="m112.59,78.55c0,1.35-1.1,2.45-2.45,2.45h-8.5c-1.35,0-2.45-1.1-2.45-2.45h0c0-1.35,1.1-2.45,2.45-2.45h8.5c1.35,0,2.45,1.1,2.45,2.45h0Z"/></g><path class="cls-10" d="m76.13,86.34c1.58-2.26,2.56-4.79,2.56-7.53,0-8.87-9.39-16.05-20.98-16.05s-20.98,7.19-20.98,16.05c0,2.74.98,5.28,2.56,7.53h36.85Z"/><path class="cls-1" d="m60.77,80.8c0,1.35-1.1,2.45-2.45,2.45h0c-1.35,0-2.45-1.1-2.45-2.45v-8.5c0-1.35,1.1-2.45,2.45-2.45h0c1.35,0,2.45,1.1,2.45,2.45v8.5Z"/><path class="cls-1" d="m65.02,76.55c0,1.35-1.1,2.45-2.45,2.45h-8.5c-1.35,0-2.45-1.1-2.45-2.45h0c0-1.35,1.1-2.45,2.45-2.45h8.5c1.35,0,2.45,1.1,2.45,2.45h0Z"/><path class="cls-6" d="m125.71,87.25c1.58-2.26,2.56-4.79,2.56-7.53,0-8.87-9.39-16.05-20.99-16.05s-20.98,7.19-20.98,16.05c0,2.74.98,5.28,2.56,7.53h36.85Z"/><path class="cls-1" d="m110.34,80.8c0,1.35-1.1,2.45-2.45,2.45h0c-1.35,0-2.45-1.1-2.45-2.45v-8.5c0-1.35,1.1-2.45,2.45-2.45h0c1.35,0,2.45,1.1,2.45,2.45v8.5Z"/><path class="cls-1" d="m114.59,76.55c0,1.35-1.1,2.45-2.45,2.45h-8.5c-1.35,0-2.45-1.1-2.45-2.45h0c0-1.35,1.1-2.45,2.45-2.45h8.5c1.35,0,2.45,1.1,2.45,2.45h0Z"/></g></g></g></svg>