<svg width="40" height="40" viewBox="0 0 40 40" fill="none" xmlns="http://www.w3.org/2000/svg">
<path d="M20 40C31.0457 40 40 31.0457 40 20C40 8.9543 31.0457 0 20 0C8.9543 0 0 8.9543 0 20C0 31.0457 8.9543 40 20 40Z" fill="url(#paint0_linear_4_5170)"/>
<path d="M20 40C31.0457 40 40 31.0457 40 20C40 8.9543 31.0457 0 20 0C8.9543 0 0 8.9543 0 20C0 31.0457 8.9543 40 20 40Z" fill="url(#paint1_linear_4_5170)"/>
<mask id="mask0_4_5170" style="mask-type:luminance" maskUnits="userSpaceOnUse" x="0" y="0" width="40" height="40">
<path d="M20 40C31.0457 40 40 31.0457 40 20C40 8.9543 31.0457 0 20 0C8.9543 0 0 8.9543 0 20C0 31.0457 8.9543 40 20 40Z" fill="white"/>
</mask>
<g mask="url(#mask0_4_5170)">
<path style="mix-blend-mode:multiply" opacity="0.3" d="M33.9727 42.261L1.70156 42.1281C0.0906217 42.1219 -1.28047 40.9719 -1.28047 39.5594V5.47033C-1.28047 4.05783 0.0898407 2.99377 1.70156 3.09142L7.07031 3.41642C10.2398 7.14846 12.0547 12.1742 11.075 17.8211C10.9125 18.7672 11.0469 19.6235 11.4078 20.4133C11.9758 21.661 13.1234 22.7414 14.607 23.7516C15.3789 24.2789 16.2461 24.7875 17.1672 25.2899C19.2875 26.4438 21.7156 27.5696 24.0484 28.8352C24.8961 29.2946 25.7312 29.775 26.5367 30.2797C26.9102 30.5149 27.2797 30.7555 27.6391 31.0047C28.5766 31.65 29.4531 32.3422 30.2406 33.093C30.9703 33.7906 31.6234 34.5422 32.1711 35.3586C33.4422 37.2492 34.1539 39.4953 33.9734 42.2602L33.9727 42.261Z" fill="url(#paint2_linear_4_5170)"/>
</g>
<path d="M8.12031 15.3516H31.5945C33.8094 15.3516 35.607 17.1492 35.607 19.3641C35.607 22.8492 32.7773 25.6797 29.2914 25.6797H10.4227C6.93749 25.6797 4.10703 22.85 4.10703 19.3641C4.10703 17.1492 5.90468 15.3516 8.11952 15.3516H8.12031Z" fill="url(#paint3_linear_4_5170)"/>
<path d="M16.4508 22.0172C16.6523 21.7297 16.7766 21.4071 16.7766 21.0578C16.7766 19.9289 15.5805 19.0133 14.1047 19.0133C12.6289 19.0133 11.4328 19.9289 11.4328 21.0578C11.4328 21.4063 11.5578 21.7297 11.7586 22.0172H16.4508Z" fill="#D8DEE8"/>
<path d="M29.9094 22.0172C30.1109 21.7297 30.2352 21.4071 30.2352 21.0578C30.2352 19.9289 29.0391 19.0133 27.5625 19.0133C26.0859 19.0133 24.8906 19.9289 24.8906 21.0578C24.8906 21.4063 25.0156 21.7297 25.2164 22.0172H29.9086H29.9094Z" fill="#D8DEE8"/>
<defs>
<linearGradient id="paint0_linear_4_5170" x1="0" y1="20" x2="40" y2="20" gradientUnits="userSpaceOnUse">
<stop stop-color="#AA80F9"/>
<stop offset="1" stop-color="#6165D7"/>
</linearGradient>
<linearGradient id="paint1_linear_4_5170" x1="0" y1="20" x2="40" y2="20" gradientUnits="userSpaceOnUse">
<stop stop-color="#AA80F9"/>
<stop offset="1" stop-color="#6165D7"/>
</linearGradient>
<linearGradient id="paint2_linear_4_5170" x1="31.7336" y1="-7.67733" x2="-14.8031" y2="86.968" gradientUnits="userSpaceOnUse">
<stop stop-color="#AA80F9"/>
<stop offset="1" stop-color="#6165D7"/>
</linearGradient>
<linearGradient id="paint3_linear_4_5170" x1="4.10781" y1="20.5156" x2="35.607" y2="20.5156" gradientUnits="userSpaceOnUse">
<stop stop-color="#444B8C"/>
<stop offset="1" stop-color="#26264F"/>
</linearGradient>
</defs>
</svg>
