<svg width="46" height="16" viewBox="0 0 46 16" fill="none" xmlns="http://www.w3.org/2000/svg">
<rect x="0.5" y="0.5" width="45" height="15" rx="7.5" fill="url(#paint0_linear_246_1637)"/>
<path d="M15.3706 11L16.8426 5.4H18.6826L20.1546 11H19.0666L18.7626 9.768H16.7626L16.4586 11H15.3706ZM17.0106 8.792H18.5146L17.8346 6.064H17.6906L17.0106 8.792ZM20.6649 11V10.072H21.4009V6.328H20.6649V5.4H22.9689C23.7209 5.4 24.2915 5.592 24.6809 5.976C25.0755 6.35467 25.2729 6.92 25.2729 7.672V8.728C25.2729 9.48 25.0755 10.048 24.6809 10.432C24.2915 10.8107 23.7209 11 22.9689 11H20.6649ZM22.4569 10.04H22.9849C23.4115 10.04 23.7235 9.928 23.9209 9.704C24.1182 9.48 24.2169 9.16533 24.2169 8.76V7.64C24.2169 7.22933 24.1182 6.91467 23.9209 6.696C23.7235 6.472 23.4115 6.36 22.9849 6.36H22.4569V10.04ZM25.8133 11V10.072H26.5493V6.328H25.8133V5.4H28.1173C28.8693 5.4 29.44 5.592 29.8293 5.976C30.224 6.35467 30.4213 6.92 30.4213 7.672V8.728C30.4213 9.48 30.224 10.048 29.8293 10.432C29.44 10.8107 28.8693 11 28.1173 11H25.8133ZM27.6053 10.04H28.1333C28.56 10.04 28.872 9.928 29.0693 9.704C29.2666 9.48 29.3653 9.16533 29.3653 8.76V7.64C29.3653 7.22933 29.2666 6.91467 29.0693 6.696C28.872 6.472 28.56 6.36 28.1333 6.36H27.6053V10.04Z" fill="white"/>
<rect x="0.5" y="0.5" width="45" height="15" rx="7.5" stroke="url(#paint1_linear_246_1637)"/>
<defs>
<linearGradient id="paint0_linear_246_1637" x1="46" y1="8" x2="-1.51203e-07" y2="8" gradientUnits="userSpaceOnUse">
<stop stop-color="#FF9085"/>
<stop offset="1" stop-color="#FB6FBB"/>
</linearGradient>
<linearGradient id="paint1_linear_246_1637" x1="46" y1="8" x2="-1.51203e-07" y2="8" gradientUnits="userSpaceOnUse">
<stop stop-color="#FF9085"/>
<stop offset="1" stop-color="#FB6FBB"/>
</linearGradient>
</defs>
</svg>
