<svg width="22" height="22" viewBox="0 0 24 24" fill="none" xmlns="http://www.w3.org/2000/svg">
<g clip-path="url(#clip0_213_998)">
<path d="M4.49566 4.3409L4.28566 4.22519L1.31137 2.5709L0.638515 2.19804C0.573364 2.16043 0.499459 2.14063 0.424229 2.14062C0.348999 2.14063 0.275094 2.16043 0.209943 2.19804C0.141815 2.23645 0.0854952 2.29277 0.0470862 2.3609C0.014617 2.42606 -0.00155993 2.49812 -5.66134e-05 2.5709V7.28519C7.42539e-05 7.36113 0.0203815 7.43567 0.0587865 7.50118C0.0971915 7.5667 0.152315 7.62083 0.218515 7.65804L2.99994 9.2009L3.76709 9.62947L4.07137 9.8009C4.10518 9.81956 4.14117 9.83395 4.17851 9.84376C4.25102 9.86675 4.32887 9.86675 4.40137 9.84376C4.43558 9.83468 4.46865 9.82174 4.49994 9.80519V9.80519C4.56598 9.76707 4.62066 9.71202 4.65832 9.64573C4.69599 9.57943 4.71529 9.50429 4.71423 9.42804V4.71376C4.7141 4.63782 4.69379 4.56327 4.65539 4.49776C4.61698 4.43224 4.56186 4.37811 4.49566 4.3409ZM3.7028 8.62661L0.857086 7.03233V3.29947L3.85709 4.96661V8.69947L3.74994 8.63947L3.7028 8.62661Z" fill="url(#paint0_linear_213_998)"/>
<path opacity="0.5" d="M3.85712 4.9667V8.69956L3.74997 8.63956L3.70283 8.61385L0.857117 7.03242V3.29956L3.85712 4.9667Z" fill="url(#paint1_linear_213_998)"/>
<path d="M8.51569 2.3609C8.47728 2.29277 8.42096 2.23645 8.35283 2.19804C8.28768 2.16043 8.21378 2.14063 8.13855 2.14062C8.06332 2.14063 7.98941 2.16043 7.92426 2.19804L7.25997 2.5709L4.28569 4.22519L4.07569 4.3409C4.00949 4.37811 3.95436 4.43224 3.91596 4.49776C3.87755 4.56327 3.85725 4.63782 3.85712 4.71376V9.42804C3.85713 9.50242 3.8765 9.57551 3.91332 9.64013C3.95014 9.70476 4.00314 9.75868 4.06712 9.79662C4.10092 9.81527 4.13691 9.82967 4.17426 9.83947C4.24677 9.86247 4.32461 9.86247 4.39712 9.83947C4.43133 9.83039 4.4644 9.81745 4.49569 9.8009V9.8009L8.35283 7.65804C8.41903 7.62083 8.47416 7.5667 8.51256 7.50118C8.55097 7.43567 8.57127 7.36113 8.5714 7.28519V2.5709C8.57026 2.4974 8.55113 2.4253 8.51569 2.3609V2.3609ZM7.71426 7.03233L4.71426 8.69947V4.96661L7.71426 3.29947V7.03233Z" fill="url(#paint2_linear_213_998)"/>
<path opacity="0.5" d="M7.7142 3.29956V7.03242L4.7142 8.69956V4.9667L7.7142 3.29956Z" fill="url(#paint3_linear_213_998)"/>
<path d="M8.51566 2.36118C8.47725 2.29305 8.42093 2.23673 8.3528 2.19832L4.49566 0.0554646C4.43051 0.0178496 4.3566 -0.00195312 4.28137 -0.00195312C4.20614 -0.00195312 4.13224 0.0178496 4.06709 0.0554646L0.209943 2.19832C0.141815 2.23673 0.0854952 2.29305 0.0470862 2.36118C0.014617 2.42633 -0.00155993 2.4984 -5.66134e-05 2.57118C7.42539e-05 2.64712 0.0203815 2.72166 0.0587865 2.78718C0.0971915 2.85269 0.152315 2.90682 0.218515 2.94404L0.857086 3.29975L3.85709 4.96689L4.07566 5.08689C4.14081 5.12451 4.21471 5.14431 4.28994 5.14431C4.36517 5.14431 4.43908 5.12451 4.50423 5.08689L4.7228 4.96689L7.71423 3.29975L8.3528 2.94404C8.419 2.90682 8.47412 2.85269 8.51253 2.78718C8.55093 2.72166 8.57124 2.64712 8.57137 2.57118C8.57023 2.49768 8.5511 2.42558 8.51566 2.36118V2.36118ZM4.28566 4.22546L1.31137 2.57118L4.28566 0.916893L7.25994 2.57118L4.28566 4.22546Z" fill="url(#paint4_linear_213_998)"/>
<path opacity="0.5" d="M7.25994 2.57103L4.28566 4.22532L1.31137 2.57103L4.28566 0.916748L7.25994 2.57103Z" fill="url(#paint5_linear_213_998)"/>
<path d="M19.9242 4.3409L19.7142 4.22519L16.7399 2.5709L16.0671 2.19804C16.0019 2.16043 15.928 2.14063 15.8528 2.14062C15.7776 2.14063 15.7037 2.16043 15.6385 2.19804C15.5704 2.23645 15.5141 2.29277 15.4756 2.3609C15.4432 2.42606 15.427 2.49812 15.4285 2.5709V7.28519C15.4286 7.36113 15.4489 7.43567 15.4873 7.50118C15.5258 7.5667 15.5809 7.62083 15.6471 7.65804L19.5042 9.8009C19.538 9.81956 19.574 9.83395 19.6114 9.84376C19.6839 9.86675 19.7617 9.86675 19.8342 9.84376C19.8684 9.83468 19.9015 9.82174 19.9328 9.80519V9.80519C19.998 9.76652 20.0518 9.71124 20.0887 9.64498C20.1256 9.57873 20.1443 9.50387 20.1428 9.42804V4.71376C20.1427 4.63782 20.1223 4.56327 20.0839 4.49776C20.0455 4.43224 19.9904 4.37811 19.9242 4.3409ZM16.2856 3.29947L19.2856 4.96661V8.69947L16.2856 7.03233V3.29947Z" fill="url(#paint6_linear_213_998)"/>
<path opacity="0.5" d="M19.2856 4.9667V8.69956L16.2856 7.03242V3.29956L19.2856 4.9667Z" fill="url(#paint7_linear_213_998)"/>
<path d="M23.9442 2.3609C23.9058 2.29277 23.8495 2.23645 23.7814 2.19804C23.7162 2.16043 23.6423 2.14063 23.5671 2.14062C23.4918 2.14063 23.4179 2.16043 23.3528 2.19804L22.6885 2.5709L19.7142 4.22519L19.5042 4.3409C19.438 4.37811 19.3829 4.43224 19.3445 4.49776C19.3061 4.56327 19.2858 4.63782 19.2856 4.71376V9.42804C19.2857 9.50242 19.305 9.57551 19.3418 9.64013C19.3787 9.70476 19.4317 9.75868 19.4956 9.79662C19.5295 9.81527 19.5654 9.82967 19.6028 9.83947C19.6753 9.86247 19.7531 9.86247 19.8256 9.83947C19.8599 9.83039 19.8929 9.81745 19.9242 9.8009V9.8009L20.2285 9.62947L20.9956 9.2009L23.7728 7.65804C23.8406 7.62195 23.8974 7.5683 23.9374 7.50271C23.9774 7.43711 23.999 7.36199 23.9999 7.28519V2.5709C23.9988 2.4974 23.9797 2.4253 23.9442 2.3609V2.3609ZM23.1428 7.03233L20.2971 8.61376L20.2499 8.63947L20.1428 8.69947V4.96661L23.1428 3.29947V7.03233Z" fill="url(#paint8_linear_213_998)"/>
<path opacity="0.5" d="M23.1428 3.29956V7.03242L20.297 8.61385L20.2499 8.63956L20.1428 8.69956V4.9667L23.1428 3.29956Z" fill="url(#paint9_linear_213_998)"/>
<path d="M23.9442 2.36118C23.9058 2.29305 23.8495 2.23673 23.7814 2.19832L19.9242 0.0554646C19.8591 0.0178496 19.7852 -0.00195312 19.7099 -0.00195312C19.6347 -0.00195312 19.5608 0.0178496 19.4956 0.0554646L15.6385 2.19832C15.5704 2.23673 15.5141 2.29305 15.4756 2.36118C15.4432 2.42633 15.427 2.4984 15.4285 2.57118C15.4286 2.64712 15.4489 2.72166 15.4873 2.78718C15.5258 2.85269 15.5809 2.90682 15.6471 2.94404L16.2856 3.29975L19.2856 4.96689L19.5042 5.08689C19.5694 5.12451 19.6433 5.14431 19.7185 5.14431C19.7937 5.14431 19.8676 5.12451 19.9328 5.08689L20.1514 4.96689L23.1428 3.29975L23.7814 2.94404C23.8476 2.90682 23.9027 2.85269 23.9411 2.78718C23.9795 2.72166 23.9998 2.64712 23.9999 2.57118C23.9988 2.49768 23.9797 2.42558 23.9442 2.36118V2.36118ZM19.7142 4.22546L16.7399 2.57118L19.7142 0.916893L22.6885 2.57118L19.7142 4.22546Z" fill="url(#paint10_linear_213_998)"/>
<path opacity="0.5" d="M22.6885 2.57103L19.7142 4.22532L16.7399 2.57103L19.7142 0.916748L22.6885 2.57103Z" fill="url(#paint11_linear_213_998)"/>
<path d="M4.49566 18.4842L4.28566 18.3685L1.31137 16.7142L0.638515 16.3414C0.573364 16.3037 0.499459 16.2839 0.424229 16.2839C0.348999 16.2839 0.275094 16.3037 0.209943 16.3414C0.141815 16.3798 0.0854952 16.4361 0.0470862 16.5042C0.014617 16.5694 -0.00155993 16.6414 -5.66134e-05 16.7142V21.4285C7.42539e-05 21.5044 0.0203815 21.579 0.0587865 21.6445C0.0971915 21.71 0.152315 21.7641 0.218515 21.8014L4.07566 23.9442C4.10946 23.9629 4.14545 23.9773 4.1828 23.9871C4.25531 24.0101 4.33315 24.0101 4.40566 23.9871C4.43987 23.978 4.47294 23.965 4.50423 23.9485V23.9485C4.56947 23.9098 4.62329 23.8546 4.66018 23.7883C4.69707 23.722 4.71572 23.6472 4.71423 23.5714V18.8571C4.7141 18.7811 4.69379 18.7066 4.65539 18.6411C4.61698 18.5756 4.56186 18.5214 4.49566 18.4842V18.4842ZM0.857086 17.4428L3.85709 19.1099V22.8428L0.857086 21.1756V17.4428Z" fill="url(#paint12_linear_213_998)"/>
<path opacity="0.5" d="M3.85712 19.1098V22.8426L0.857117 21.1755V17.4426L3.85712 19.1098Z" fill="url(#paint13_linear_213_998)"/>
<path d="M8.51569 16.5042C8.47728 16.4361 8.42096 16.3798 8.35283 16.3414C8.28768 16.3037 8.21378 16.2839 8.13855 16.2839C8.06332 16.2839 7.98941 16.3037 7.92426 16.3414L7.25997 16.7142L4.28569 18.3685L4.07569 18.4842C4.00949 18.5214 3.95436 18.5756 3.91596 18.6411C3.87755 18.7066 3.85725 18.7811 3.85712 18.8571V23.5714C3.85713 23.6457 3.8765 23.7188 3.91332 23.7834C3.95014 23.8481 4.00314 23.902 4.06712 23.9399C4.10092 23.9586 4.13691 23.973 4.17426 23.9828C4.24677 24.0058 4.32461 24.0058 4.39712 23.9828C4.43133 23.9737 4.4644 23.9608 4.49569 23.9442V23.9442L8.35283 21.8014C8.41903 21.7641 8.47416 21.71 8.51256 21.6445C8.55097 21.579 8.57127 21.5044 8.5714 21.4285V16.7142C8.57026 16.6407 8.55113 16.5686 8.51569 16.5042V16.5042ZM7.71426 21.1756L4.71426 22.8428V19.1099L7.71426 17.4428V21.1756Z" fill="url(#paint14_linear_213_998)"/>
<path opacity="0.5" d="M7.7142 17.4426V21.1755L4.7142 22.8426V19.1098L7.7142 17.4426Z" fill="url(#paint15_linear_213_998)"/>
<path d="M8.51571 16.5038C8.47731 16.4356 8.42099 16.3793 8.35286 16.3409L4.49571 14.198C4.43056 14.1604 4.35666 14.1406 4.28143 14.1406C4.2062 14.1406 4.13229 14.1604 4.06714 14.198L3.75429 14.3738L3 14.798L0.218571 16.3409C0.150443 16.3793 0.0941232 16.4356 0.0557143 16.5038C0.0202696 16.5682 0.00114064 16.6403 0 16.7138C0.000130867 16.7897 0.0204381 16.8642 0.0588431 16.9298C0.0972481 16.9953 0.152372 17.0494 0.218571 17.0866L0.857143 17.4423L3.85714 19.1095L4.07571 19.2295C4.14087 19.2671 4.21477 19.2869 4.29 19.2869C4.36523 19.2869 4.43913 19.2671 4.50429 19.2295L4.72286 19.1095L7.72286 17.4423L8.36143 17.0866C8.42603 17.0483 8.47944 16.9937 8.51629 16.9283C8.55315 16.8628 8.57216 16.7889 8.57143 16.7138C8.57029 16.6403 8.55116 16.5682 8.51571 16.5038V16.5038ZM4.28571 18.368L1.31143 16.7138L3.69 15.3938L3.75429 15.3552H3.77571L4.28571 15.0595L7.26 16.7138L4.28571 18.368Z" fill="url(#paint16_linear_213_998)"/>
<path opacity="0.5" d="M7.25994 16.7141L4.28566 18.3684L1.31137 16.7141L3.68994 15.3941L3.75423 15.3555H3.77566L4.28566 15.0598L7.25994 16.7141Z" fill="url(#paint17_linear_213_998)"/>
<path d="M19.9242 18.4842L19.7142 18.3685L16.7399 16.7142L16.0671 16.3414C16.0019 16.3037 15.928 16.2839 15.8528 16.2839C15.7776 16.2839 15.7037 16.3037 15.6385 16.3414C15.5704 16.3798 15.5141 16.4361 15.4756 16.5042C15.4432 16.5694 15.427 16.6414 15.4285 16.7142V21.4285C15.4286 21.5044 15.4489 21.579 15.4873 21.6445C15.5258 21.71 15.5809 21.7641 15.6471 21.8014L19.5042 23.9442C19.538 23.9629 19.574 23.9773 19.6114 23.9871C19.6839 24.0098 19.7617 24.0098 19.8342 23.9871C19.8684 23.978 19.9015 23.965 19.9328 23.9485C19.998 23.9098 20.0518 23.8546 20.0887 23.7883C20.1256 23.722 20.1443 23.6472 20.1428 23.5714V18.8571C20.1427 18.7811 20.1223 18.7066 20.0839 18.6411C20.0455 18.5756 19.9904 18.5214 19.9242 18.4842ZM16.2856 17.4428L19.2856 19.1099V22.8428L16.2856 21.1756V17.4428Z" fill="url(#paint18_linear_213_998)"/>
<path opacity="0.5" d="M19.2856 19.1098V22.8426L16.2856 21.1755V17.4426L19.2856 19.1098Z" fill="url(#paint19_linear_213_998)"/>
<path d="M23.9442 16.5042C23.9058 16.4361 23.8495 16.3798 23.7814 16.3414C23.7162 16.3037 23.6423 16.2839 23.5671 16.2839C23.4918 16.2839 23.4179 16.3037 23.3528 16.3414L22.6885 16.7142L19.7142 18.3685L19.5042 18.4842C19.438 18.5214 19.3829 18.5756 19.3445 18.6411C19.3061 18.7066 19.2858 18.7811 19.2856 18.8571V23.5714C19.2857 23.6457 19.305 23.7188 19.3418 23.7834C19.3787 23.8481 19.4317 23.902 19.4956 23.9399C19.5295 23.9586 19.5654 23.973 19.6028 23.9828C19.6753 24.0055 19.7531 24.0055 19.8256 23.9828C19.8599 23.9737 19.8929 23.9608 19.9242 23.9442V23.9442L23.7814 21.8014C23.8476 21.7641 23.9027 21.71 23.9411 21.6445C23.9795 21.579 23.9998 21.5044 23.9999 21.4285V16.7142C23.9988 16.6407 23.9797 16.5686 23.9442 16.5042V16.5042ZM23.1428 21.1756L20.1428 22.8428V19.1099L23.1428 17.4428V21.1756Z" fill="url(#paint20_linear_213_998)"/>
<path opacity="0.5" d="M23.1428 17.4426V21.1755L20.1428 22.8426V19.1098L23.1428 17.4426Z" fill="url(#paint21_linear_213_998)"/>
<path d="M20.0829 14.8541C20.1386 14.6956 20.19 14.537 20.2372 14.3741L19.9243 14.1984C19.8591 14.1608 19.7852 14.141 19.71 14.141C19.6348 14.141 19.5609 14.1608 19.4957 14.1984L15.6386 16.3413C15.7037 16.3037 15.7776 16.2839 15.8529 16.2839C15.9281 16.2839 16.002 16.3037 16.0672 16.3413L16.74 16.7141L19.7143 15.0599L20.22 15.3384C20.149 15.2825 20.0975 15.2055 20.0729 15.1185C20.0482 15.0315 20.0517 14.939 20.0829 14.8541V14.8541ZM23.94 16.5041C23.9016 16.436 23.8453 16.3797 23.7772 16.3413L21 14.7984L20.2329 14.3698L19.92 14.1941C19.8549 14.1565 19.781 14.1367 19.7057 14.1367C19.6305 14.1367 19.5566 14.1565 19.4914 14.1941L15.6343 16.337C15.5662 16.3754 15.5099 16.4317 15.4714 16.4999C15.4398 16.5667 15.425 16.6403 15.4286 16.7141C15.4287 16.7901 15.449 16.8646 15.4874 16.9301C15.5258 16.9957 15.581 17.0498 15.6472 17.087L16.2857 17.4427L19.2857 19.1099L19.5043 19.2299C19.5694 19.2675 19.6434 19.2873 19.7186 19.2873C19.7938 19.2873 19.8677 19.2675 19.9329 19.2299L20.1514 19.1099L23.1514 17.4427L23.79 17.087C23.8546 17.0487 23.908 16.9941 23.9449 16.9287C23.9817 16.8632 24.0007 16.7892 24 16.7141C23.9989 16.6406 23.9797 16.5685 23.9443 16.5041H23.94ZM19.7143 18.3684L16.74 16.7141L19.7143 15.0599L20.22 15.3384L20.2843 15.377L22.6886 16.7141L19.7143 18.3684Z" fill="url(#paint22_linear_213_998)"/>
<path opacity="0.5" d="M22.6885 16.7141L19.7142 18.3684L16.7399 16.7141L19.7142 15.0598L20.2199 15.3384L20.2842 15.377L22.6885 16.7141Z" fill="url(#paint23_linear_213_998)"/>
<path opacity="0.5" d="M3.77999 15.3385H3.75856L3.69428 15.377H3.66428C3.61768 15.4028 3.5669 15.4202 3.51428 15.4285C3.4262 15.4284 3.34027 15.4012 3.26819 15.3506C3.1961 15.3 3.14137 15.2284 3.11142 15.1456C3.06856 15.0285 3.02999 14.9127 2.9957 14.7985C2.43056 12.9753 2.43205 11.0236 2.99999 9.20131C3.03428 9.08417 3.07285 8.96846 3.11571 8.85417C3.15439 8.74736 3.2339 8.66027 3.33676 8.61205C3.43963 8.56383 3.55743 8.55843 3.66428 8.59703H3.70713L3.75428 8.62274C3.79571 8.65602 3.83058 8.69671 3.85713 8.74274C3.89977 8.79964 3.92758 8.86626 3.93805 8.93659C3.94852 9.00692 3.94134 9.07874 3.91713 9.1456C3.89571 9.2056 3.87428 9.26131 3.85713 9.32131C3.83999 9.38131 3.79285 9.52274 3.76285 9.6256C3.31704 11.1771 3.31704 12.8227 3.76285 14.3742C3.80999 14.537 3.86142 14.6956 3.91713 14.8542C3.94827 14.939 3.95178 15.0316 3.92715 15.1186C3.90251 15.2055 3.85101 15.2825 3.77999 15.3385V15.3385Z" fill="url(#paint24_linear_213_998)"/>
<path opacity="0.5" d="M11.9999 21.4282C10.6016 21.4334 9.22011 21.1228 7.9585 20.5197C7.85564 20.4708 7.7764 20.383 7.73822 20.2758C7.70005 20.1685 7.70606 20.0504 7.75493 19.9475C7.80381 19.8447 7.89155 19.7654 7.99884 19.7272C8.10614 19.6891 8.22421 19.6951 8.32708 19.7439C9.47496 20.2883 10.7295 20.5707 11.9999 20.5707C13.2704 20.5707 14.5249 20.2883 15.6728 19.7439C15.7757 19.6951 15.8937 19.6891 16.001 19.7272C16.1083 19.7654 16.1961 19.8447 16.2449 19.9475C16.2938 20.0504 16.2998 20.1685 16.2616 20.2758C16.2235 20.383 16.1442 20.4708 16.0414 20.5197C14.7798 21.1228 13.3983 21.4334 11.9999 21.4282V21.4282Z" fill="url(#paint25_linear_213_998)"/>
<path opacity="0.5" d="M21.4285 11.9998C21.4289 12.9491 21.2844 13.8928 21 14.7984C20.9657 14.9127 20.9271 15.0284 20.8842 15.1455C20.8543 15.2284 20.7996 15.3 20.7275 15.3506C20.6554 15.4012 20.5695 15.4284 20.4814 15.4284C20.4317 15.4279 20.3825 15.4192 20.3357 15.4027H20.3057L20.2414 15.3641C20.1704 15.3082 20.1189 15.2312 20.0942 15.1442C20.0696 15.0572 20.0731 14.9647 20.1042 14.8798C20.16 14.7213 20.2114 14.5627 20.2585 14.3998C20.7043 12.8484 20.7043 11.2027 20.2585 9.65126C20.2285 9.5484 20.1985 9.44555 20.1642 9.34697C20.13 9.2484 20.1257 9.23126 20.1042 9.17126C20.0723 9.10277 20.0591 9.02705 20.0658 8.95178C20.0726 8.87652 20.0992 8.80438 20.1428 8.74269C20.1723 8.70243 20.2085 8.66762 20.25 8.63983L20.2971 8.61412H20.34C20.4468 8.57552 20.5646 8.58092 20.6675 8.62914C20.7703 8.67736 20.8498 8.76445 20.8885 8.87126C20.9314 8.98555 20.97 9.10126 21.0042 9.2184C21.2855 10.1188 21.4286 11.0566 21.4285 11.9998V11.9998Z" fill="url(#paint26_linear_213_998)"/>
<path opacity="0.5" d="M15.8571 4.28523C15.7932 4.28578 15.73 4.27109 15.6728 4.24238C14.5242 3.70063 13.27 3.41969 12 3.41969C10.73 3.41969 9.47575 3.70063 8.32712 4.24238C8.22478 4.29095 8.10737 4.29703 8.00056 4.25929C7.89375 4.22154 7.80622 4.14304 7.75712 4.04095C7.7324 3.99006 7.718 3.93477 7.71476 3.87829C7.71151 3.8218 7.71948 3.76523 7.73821 3.71184C7.75693 3.65845 7.78604 3.6093 7.82386 3.56722C7.86168 3.52514 7.90746 3.49096 7.95855 3.46666C9.22264 2.87125 10.6027 2.5625 12 2.5625C13.3973 2.5625 14.7773 2.87125 16.0414 3.46666C16.131 3.50746 16.2039 3.57786 16.2477 3.66604C16.2915 3.75422 16.3036 3.85479 16.2819 3.95084C16.2603 4.0469 16.2063 4.13258 16.1289 4.19347C16.0515 4.25437 15.9556 4.28677 15.8571 4.28523V4.28523Z" fill="url(#paint27_linear_213_998)"/>
</g>
<defs>
<linearGradient id="paint0_linear_213_998" x1="4.71427" y1="6.00081" x2="-0.000152603" y2="6.00081" gradientUnits="userSpaceOnUse">
<stop stop-color="#FF9085"/>
<stop offset="1" stop-color="#FB6FBB"/>
</linearGradient>
<linearGradient id="paint1_linear_213_998" x1="3.85712" y1="5.99956" x2="0.857117" y2="5.99956" gradientUnits="userSpaceOnUse">
<stop stop-color="#FF9085"/>
<stop offset="1" stop-color="#FB6FBB"/>
</linearGradient>
<linearGradient id="paint2_linear_213_998" x1="8.5714" y1="5.99867" x2="3.85712" y2="5.99867" gradientUnits="userSpaceOnUse">
<stop stop-color="#FF9085"/>
<stop offset="1" stop-color="#FB6FBB"/>
</linearGradient>
<linearGradient id="paint3_linear_213_998" x1="7.7142" y1="5.99956" x2="4.7142" y2="5.99956" gradientUnits="userSpaceOnUse">
<stop stop-color="#FF9085"/>
<stop offset="1" stop-color="#FB6FBB"/>
</linearGradient>
<linearGradient id="paint4_linear_213_998" x1="8.57137" y1="2.57118" x2="-0.000152616" y2="2.57118" gradientUnits="userSpaceOnUse">
<stop stop-color="#FF9085"/>
<stop offset="1" stop-color="#FB6FBB"/>
</linearGradient>
<linearGradient id="paint5_linear_213_998" x1="7.25994" y1="2.57103" x2="1.31137" y2="2.57103" gradientUnits="userSpaceOnUse">
<stop stop-color="#FF9085"/>
<stop offset="1" stop-color="#FB6FBB"/>
</linearGradient>
<linearGradient id="paint6_linear_213_998" x1="20.1429" y1="6.00081" x2="15.4284" y2="6.00081" gradientUnits="userSpaceOnUse">
<stop stop-color="#FF9085"/>
<stop offset="1" stop-color="#FB6FBB"/>
</linearGradient>
<linearGradient id="paint7_linear_213_998" x1="19.2856" y1="5.99956" x2="16.2856" y2="5.99956" gradientUnits="userSpaceOnUse">
<stop stop-color="#FF9085"/>
<stop offset="1" stop-color="#FB6FBB"/>
</linearGradient>
<linearGradient id="paint8_linear_213_998" x1="23.9999" y1="5.99867" x2="19.2856" y2="5.99867" gradientUnits="userSpaceOnUse">
<stop stop-color="#FF9085"/>
<stop offset="1" stop-color="#FB6FBB"/>
</linearGradient>
<linearGradient id="paint9_linear_213_998" x1="23.1428" y1="5.99956" x2="20.1428" y2="5.99956" gradientUnits="userSpaceOnUse">
<stop stop-color="#FF9085"/>
<stop offset="1" stop-color="#FB6FBB"/>
</linearGradient>
<linearGradient id="paint10_linear_213_998" x1="23.9999" y1="2.57118" x2="15.4284" y2="2.57118" gradientUnits="userSpaceOnUse">
<stop stop-color="#FF9085"/>
<stop offset="1" stop-color="#FB6FBB"/>
</linearGradient>
<linearGradient id="paint11_linear_213_998" x1="22.6885" y1="2.57103" x2="16.7399" y2="2.57103" gradientUnits="userSpaceOnUse">
<stop stop-color="#FF9085"/>
<stop offset="1" stop-color="#FB6FBB"/>
</linearGradient>
<linearGradient id="paint12_linear_213_998" x1="4.71431" y1="20.1441" x2="-0.000152603" y2="20.1441" gradientUnits="userSpaceOnUse">
<stop stop-color="#FF9085"/>
<stop offset="1" stop-color="#FB6FBB"/>
</linearGradient>
<linearGradient id="paint13_linear_213_998" x1="3.85712" y1="20.1426" x2="0.857117" y2="20.1426" gradientUnits="userSpaceOnUse">
<stop stop-color="#FF9085"/>
<stop offset="1" stop-color="#FB6FBB"/>
</linearGradient>
<linearGradient id="paint14_linear_213_998" x1="8.5714" y1="20.142" x2="3.85712" y2="20.142" gradientUnits="userSpaceOnUse">
<stop stop-color="#FF9085"/>
<stop offset="1" stop-color="#FB6FBB"/>
</linearGradient>
<linearGradient id="paint15_linear_213_998" x1="7.7142" y1="20.1426" x2="4.7142" y2="20.1426" gradientUnits="userSpaceOnUse">
<stop stop-color="#FF9085"/>
<stop offset="1" stop-color="#FB6FBB"/>
</linearGradient>
<linearGradient id="paint16_linear_213_998" x1="8.57145" y1="16.7138" x2="-2.81745e-08" y2="16.7138" gradientUnits="userSpaceOnUse">
<stop stop-color="#FF9085"/>
<stop offset="1" stop-color="#FB6FBB"/>
</linearGradient>
<linearGradient id="paint17_linear_213_998" x1="7.25994" y1="16.7141" x2="1.31137" y2="16.7141" gradientUnits="userSpaceOnUse">
<stop stop-color="#FF9085"/>
<stop offset="1" stop-color="#FB6FBB"/>
</linearGradient>
<linearGradient id="paint18_linear_213_998" x1="20.1429" y1="20.144" x2="15.4284" y2="20.144" gradientUnits="userSpaceOnUse">
<stop stop-color="#FF9085"/>
<stop offset="1" stop-color="#FB6FBB"/>
</linearGradient>
<linearGradient id="paint19_linear_213_998" x1="19.2856" y1="20.1426" x2="16.2856" y2="20.1426" gradientUnits="userSpaceOnUse">
<stop stop-color="#FF9085"/>
<stop offset="1" stop-color="#FB6FBB"/>
</linearGradient>
<linearGradient id="paint20_linear_213_998" x1="23.9999" y1="20.1419" x2="19.2856" y2="20.1419" gradientUnits="userSpaceOnUse">
<stop stop-color="#FF9085"/>
<stop offset="1" stop-color="#FB6FBB"/>
</linearGradient>
<linearGradient id="paint21_linear_213_998" x1="23.1428" y1="20.1426" x2="20.1428" y2="20.1426" gradientUnits="userSpaceOnUse">
<stop stop-color="#FF9085"/>
<stop offset="1" stop-color="#FB6FBB"/>
</linearGradient>
<linearGradient id="paint22_linear_213_998" x1="24" y1="16.712" x2="15.4281" y2="16.712" gradientUnits="userSpaceOnUse">
<stop stop-color="#FF9085"/>
<stop offset="1" stop-color="#FB6FBB"/>
</linearGradient>
<linearGradient id="paint23_linear_213_998" x1="22.6885" y1="16.7141" x2="16.7399" y2="16.7141" gradientUnits="userSpaceOnUse">
<stop stop-color="#FF9085"/>
<stop offset="1" stop-color="#FB6FBB"/>
</linearGradient>
<linearGradient id="paint24_linear_213_998" x1="3.94336" y1="12" x2="2.57294" y2="12" gradientUnits="userSpaceOnUse">
<stop stop-color="#FF9085"/>
<stop offset="1" stop-color="#FB6FBB"/>
</linearGradient>
<linearGradient id="paint25_linear_213_998" x1="16.2865" y1="20.5653" x2="7.71338" y2="20.5653" gradientUnits="userSpaceOnUse">
<stop stop-color="#FF9085"/>
<stop offset="1" stop-color="#FB6FBB"/>
</linearGradient>
<linearGradient id="paint26_linear_213_998" x1="21.4285" y1="12.0085" x2="20.0641" y2="12.0085" gradientUnits="userSpaceOnUse">
<stop stop-color="#FF9085"/>
<stop offset="1" stop-color="#FB6FBB"/>
</linearGradient>
<linearGradient id="paint27_linear_213_998" x1="16.2924" y1="3.42389" x2="7.71405" y2="3.42389" gradientUnits="userSpaceOnUse">
<stop stop-color="#FF9085"/>
<stop offset="1" stop-color="#FB6FBB"/>
</linearGradient>
<clipPath id="clip0_213_998">
<rect width="24" height="24" fill="white"/>
</clipPath>
</defs>
</svg>
