<svg width="33" height="32" viewBox="0 0 33 32" fill="none" xmlns="http://www.w3.org/2000/svg">
<path d="M30.578 16.3109C30.578 15.1598 30.4827 14.3198 30.2765 13.4487H16.8638V18.6442H24.7367C24.578 19.9354 23.7209 21.8798 21.8161 23.1864L21.7894 23.3604L26.0303 26.58L26.3241 26.6087C29.0224 24.1665 30.578 20.5731 30.578 16.3109" fill="#4285F4"/>
<path d="M16.863 30C20.72 30 23.9581 28.7555 26.3232 26.6089L21.8153 23.1865C20.609 24.011 18.9899 24.5866 16.863 24.5866C13.0852 24.5866 9.87891 22.1444 8.73595 18.7688L8.56842 18.7827L4.15874 22.1272L4.10107 22.2843C6.45025 26.8577 11.2756 30 16.863 30Z" fill="#34A853"/>
<path d="M8.73679 18.769C8.43521 17.8979 8.26067 16.9645 8.26067 16.0001C8.26067 15.0356 8.43521 14.1023 8.72092 13.2312L8.71293 13.0456L4.24798 9.64746L4.1019 9.71556C3.13369 11.6134 2.57812 13.7445 2.57812 16.0001C2.57812 18.2556 3.13369 20.3867 4.1019 22.2845L8.73679 18.769" fill="#FBBC05"/>
<path d="M16.863 7.4133C19.5455 7.4133 21.355 8.54885 22.3868 9.4978L26.4186 5.64C23.9424 3.38445 20.7201 2 16.863 2C11.2757 2 6.45026 5.1422 4.10107 9.71549L8.72011 13.2311C9.87895 9.85555 13.0853 7.4133 16.863 7.4133" fill="#EB4335"/>
</svg>
