<svg width="19" height="18" viewBox="0 0 19 18" fill="none" xmlns="http://www.w3.org/2000/svg">
<path d="M2.31501 2.42623L2.31495 2.42617L2.30564 2.43619C1.5072 3.29526 1 4.46358 1 5.78633C1 7.0949 1.51028 8.25708 2.29641 9.12642L2.29635 9.12648L2.30564 9.13648L8.30564 15.5922L9.03812 16.3803L9.77061 15.5922L15.7706 9.13648C16.569 8.2774 17.0762 7.10908 17.0762 5.78633C17.0762 4.47776 16.566 3.31559 15.7798 2.44625L15.7799 2.44618L15.7706 2.43619C14.9721 1.57706 13.854 1 12.5572 1C11.2735 1 10.1611 1.58038 9.35314 2.42623L9.35307 2.42617L9.34376 2.43619C9.23552 2.55265 9.13263 2.6748 9.03563 2.80224C8.94273 2.67878 8.84458 2.56001 8.74171 2.44625L8.74178 2.44618L8.73249 2.43619C7.93401 1.57706 6.8159 1 5.51906 1C4.2354 1 3.123 1.58038 2.31501 2.42623Z" fill="white" stroke="#373B71" stroke-width="2"/>
</svg>
