<svg width="38" height="30" viewBox="0 0 38 30" fill="none" xmlns="http://www.w3.org/2000/svg">
<path d="M36.1109 14.5267L34.6638 13.7437C34.0284 10.6467 32.5107 7.87691 30.3812 5.69145C29.1811 4.45267 27.7928 3.41254 26.2515 2.59447V1.6829C26.2515 1.20374 25.3338 0.77133 23.8514 0.467471C22.4631 0.175302 20.5806 0 18.5099 0C17.7804 0 17.0745 0.0233736 16.3921 0.058434C13.1449 0.257109 10.7683 0.911569 10.7683 1.67121V2.58278C9.73292 3.13206 8.76817 3.78653 7.87401 4.53446C5.10911 6.87184 3.12078 10.0857 2.35603 13.7437L0.908887 14.5267C0.250026 14.8773 -0.102935 15.6136 0.0264842 16.3382L1.34421 23.6891C1.47363 24.4371 2.08543 24.9981 2.83841 25.0915L5.05029 25.3604C6.25036 26.6459 7.76811 27.651 9.52113 28.3872C11.8742 29.3806 14.6391 29.9065 17.6157 29.9883C17.9099 30 18.2158 30 18.5099 30C20.7806 30 22.9454 29.7546 24.922 29.2521C27.5104 28.5859 29.7694 27.464 31.4753 25.8512C31.6753 25.6642 31.8754 25.4655 32.0636 25.2552L34.1461 25.0565C34.9226 24.9864 35.5462 24.4137 35.6873 23.6424L36.9933 16.3265C37.1227 15.6136 36.7698 14.8773 36.1109 14.5267Z" fill="url(#paint0_linear_0_1)"/>
<path d="M18.51 25.9914C14.5804 25.9914 11.3566 25.185 9.19182 23.654C7.08581 22.1698 6.06224 20.0078 6.06224 17.051C6.06224 10.2259 11.6508 4.67468 18.5218 4.67468C25.3927 4.67468 30.9813 10.2259 30.9813 17.051C30.9813 20.0078 29.9577 22.1581 27.8517 23.654C25.6634 25.185 22.4396 25.9914 18.51 25.9914Z" fill="white"/>
<path d="M18.5099 23.1399C16.0627 23.1399 13.792 21.7141 12.7213 19.517L14.6979 18.582C15.4156 20.0546 16.8745 20.9778 18.5099 20.9778C20.1453 20.9778 21.616 20.0663 22.3219 18.582L24.2985 19.517C23.2278 21.7141 20.9571 23.1399 18.5099 23.1399Z" fill="#121826"/>
<defs>
<linearGradient id="paint0_linear_0_1" x1="9.53076" y1="27.4459" x2="29.6146" y2="5.43419" gradientUnits="userSpaceOnUse">
<stop stop-color="#FF61D3"/>
<stop offset="0.5" stop-color="#B318FF"/>
<stop offset="1" stop-color="#00F0FF"/>
</linearGradient>
</defs>
</svg>
