<svg width="33" height="31" viewBox="0 0 33 31" fill="none" xmlns="http://www.w3.org/2000/svg">
<g clip-path="url(#clip0_172_765)">
<path d="M31.8349 0.551758L18.104 10.7117L20.6574 4.7241L31.8349 0.551758Z" fill="#E17726"/>
<path d="M1.35059 0.563721L12.4982 4.72486L14.9227 10.7909L1.35059 0.563721Z" fill="#E27625"/>
<path d="M26.309 22.1589L32.3778 22.2744L30.2569 29.4797L22.8516 27.4408L26.309 22.1589Z" fill="#E27625"/>
<path d="M6.84393 22.1589L10.2886 27.4408L2.89567 29.4799L0.787598 22.2744L6.84393 22.1589Z" fill="#E27625"/>
<path d="M14.5932 9.24561L14.8413 17.256L7.41992 16.9184L9.53087 13.7337L9.55759 13.703L14.5932 9.24561Z" fill="#E27625"/>
<path d="M18.4832 9.15649L23.5957 13.7036L23.6221 13.734L25.7331 16.9187L18.3135 17.2563L18.4832 9.15649Z" fill="#E27625"/>
<path d="M10.506 22.1824L14.5583 25.3397L9.85107 27.6124L10.506 22.1824Z" fill="#E27625"/>
<path d="M22.6479 22.1816L23.2893 27.6122L18.5952 25.3393L22.6479 22.1816Z" fill="#E27625"/>
<path d="M18.6987 25.042L23.4621 27.3485L19.0312 29.4543L19.0772 28.0625L18.6987 25.042Z" fill="#D5BFB2"/>
<path d="M14.4528 25.043L14.0892 28.0397L14.119 29.4526L9.67773 27.3484L14.4528 25.043Z" fill="#D5BFB2"/>
<path d="M13.0777 18.3015L14.3224 20.9175L10.0845 19.6761L13.0777 18.3015Z" fill="#233447"/>
<path d="M20.0755 18.3018L23.0828 19.676L18.8311 20.9171L20.0755 18.3018Z" fill="#233447"/>
<path d="M10.8298 22.1555L10.1448 27.7855L6.47314 22.2786L10.8298 22.1555Z" fill="#CC6228"/>
<path d="M22.3237 22.1555L26.6805 22.2786L22.9951 27.7856L22.3237 22.1555Z" fill="#CC6228"/>
<path d="M25.8406 16.6001L22.6699 19.8315L20.2253 18.7143L19.0549 21.1748L18.2876 16.9437L25.8406 16.6001Z" fill="#CC6228"/>
<path d="M7.31104 16.6001L14.8653 16.9438L14.098 21.1749L12.9274 18.7147L10.4957 19.8316L7.31104 16.6001Z" fill="#CC6228"/>
<path d="M7.09717 15.937L10.6845 19.5771L10.8088 23.1707L7.09717 15.937Z" fill="#E27525"/>
<path d="M26.0595 15.9304L22.3413 23.1771L22.4813 19.577L26.0595 15.9304Z" fill="#E27525"/>
<path d="M14.6899 16.1587L14.8343 17.0674L15.1911 19.3313L14.9617 26.2845L13.8773 20.6989L13.877 20.6412L14.6899 16.1587Z" fill="#E27525"/>
<path d="M18.4615 16.1462L19.2767 20.6412L19.2763 20.699L18.1892 26.2985L18.1462 24.898L17.9766 19.2902L18.4615 16.1462Z" fill="#E27525"/>
<path d="M22.8 19.4326L22.6786 22.5549L18.8944 25.5033L18.1294 24.9628L18.9869 20.5458L22.8 19.4326Z" fill="#F5841F"/>
<path d="M10.3662 19.4326L14.1662 20.5459L15.0237 24.9627L14.2587 25.5032L10.4742 22.5545L10.3662 19.4326Z" fill="#F5841F"/>
<path d="M8.9541 26.6589L13.7956 28.9529L13.7751 27.9733L14.1802 27.6178H18.9719L19.3917 27.9722L19.3608 28.951L24.1716 26.6647L21.8306 28.5992L18.9999 30.5434H14.1414L11.3125 28.5912L8.9541 26.6589Z" fill="#C0AC9D"/>
<path d="M18.3523 24.7366L19.0368 25.2201L19.438 28.4207L18.8574 27.9305H14.298L13.7285 28.4306L14.1165 25.2204L14.8013 24.7366H18.3523Z" fill="#161616"/>
<path d="M30.9284 0.833008L32.5766 5.77769L31.5472 10.7772L32.2802 11.3427L31.2884 12.0994L32.0338 12.6751L31.0467 13.5741L31.6527 14.0129L30.0445 15.8911L23.4482 13.9706L23.3911 13.9399L18.6377 9.93013L30.9284 0.833008Z" fill="#763E1A"/>
<path d="M2.22491 0.833008L14.5156 9.93013L9.76221 13.9399L9.70505 13.9706L3.10875 15.8911L1.50056 14.0129L2.10607 13.5744L1.11947 12.6751L1.86348 12.1001L0.856827 11.3412L1.61745 10.7754L0.57666 5.77788L2.22491 0.833008Z" fill="#763E1A"/>
<path d="M23.1258 13.5505L30.115 15.5854L32.3857 22.5836L26.3952 22.5836L22.2676 22.6357L25.2693 16.7847L23.1258 13.5505Z" fill="#F5841F"/>
<path d="M10.0275 13.5505L7.88356 16.7846L10.8857 22.6356L6.76013 22.5836H0.780273L3.03819 15.5854L10.0275 13.5505Z" fill="#F5841F"/>
<path d="M20.9994 4.69067L19.0445 9.97052L18.6297 17.1031L18.4709 19.3387L18.4583 25.0496H14.6944L14.6822 19.3494L14.5229 17.1012L14.1079 9.97052L12.1533 4.69067H20.9994Z" fill="#F5841F"/>
</g>
<defs>
<clipPath id="clip0_172_765">
<rect width="32" height="30" fill="white" transform="translate(0.57666 0.551758)"/>
</clipPath>
</defs>
</svg>
