<svg width="36" height="20" viewBox="0 0 36 40" fill="none" xmlns="http://www.w3.org/2000/svg">
<path d="M17.7369 40C17.2009 40 16.6649 39.8618 16.1867 39.5862L1.55022 31.1351C0.593779 30.5835 0 29.5547 0 28.4507V11.5497C0 10.4453 0.594223 9.4164 1.55067 8.86484L16.1867 0.414167C17.1431 -0.137833 18.3307 -0.138278 19.2876 0.414167L33.9236 8.8644C34.8796 9.41596 35.4738 10.4448 35.4738 11.5493V28.4502C35.4738 29.5547 34.8796 30.5835 33.9232 31.1351L19.2871 39.5858C18.8089 39.8618 18.2729 40 17.7369 40ZM17.7369 2.66573C17.6622 2.66573 17.5876 2.68484 17.5205 2.7235L2.88356 11.1742C2.74978 11.2515 2.66667 11.3955 2.66667 11.5497V28.4507C2.66667 28.6049 2.74978 28.7489 2.88312 28.8258L17.52 37.2769C17.6534 37.3533 17.8196 37.3542 17.9534 37.2769L32.5903 28.8262C32.724 28.7489 32.8067 28.6053 32.8067 28.4507V11.5497C32.8067 11.3951 32.7236 11.2515 32.5907 11.1746L17.9534 2.7235C17.8867 2.68484 17.8116 2.66573 17.7369 2.66573Z" fill="#F36F56"/>
<path d="M12.0135 25.9832C11.5607 25.9832 11.1282 25.7516 10.8807 25.353L7.57487 20.0272V24.6499C7.57487 25.3863 6.97798 25.9832 6.24154 25.9832C5.50509 25.9832 4.9082 25.3863 4.9082 24.6499V15.3503C4.9082 14.7547 5.30331 14.2312 5.87576 14.0681C6.44998 13.9059 7.06065 14.1414 7.37443 14.6472L10.6802 19.973V15.3503C10.6802 14.6139 11.2771 14.017 12.0135 14.017C12.75 14.017 13.3469 14.6139 13.3469 15.3503V24.6499C13.3469 25.2454 12.9518 25.769 12.3793 25.9321C12.258 25.9668 12.1349 25.9832 12.0135 25.9832Z" fill="#F36F56"/>
<path d="M16.5086 25.9832C15.7722 25.9832 15.1753 25.3863 15.1753 24.6499V15.3503C15.1753 14.6139 15.7722 14.017 16.5086 14.017H20.2069C20.9433 14.017 21.5402 14.6139 21.5402 15.3503C21.5402 16.0867 20.9433 16.6836 20.2069 16.6836H17.842V24.6499C17.842 25.3863 17.2451 25.9832 16.5086 25.9832Z" fill="#F36F56"/>
<path d="M20.2069 21.3333H16.5086C15.7722 21.3333 15.1753 20.7364 15.1753 20C15.1753 19.2635 15.7722 18.6666 16.5086 18.6666H20.2069C20.9433 18.6666 21.5402 19.2635 21.5402 20C21.5402 20.7364 20.9433 21.3333 20.2069 21.3333Z" fill="#F36F56"/>
<path d="M29.233 16.6836H23.9481C23.2116 16.6836 22.6147 16.0867 22.6147 15.3503C22.6147 14.6139 23.2116 14.017 23.9481 14.017H29.233C29.9694 14.017 30.5663 14.6139 30.5663 15.3503C30.5663 16.0867 29.9694 16.6836 29.233 16.6836Z" fill="#F36F56"/>
<path d="M26.5892 25.9832C25.8527 25.9832 25.2559 25.3863 25.2559 24.6499V15.3503C25.2559 14.6139 25.8527 14.017 26.5892 14.017C27.3256 14.017 27.9225 14.6139 27.9225 15.3503V24.6499C27.9225 25.3863 27.3261 25.9832 26.5892 25.9832Z" fill="#F36F56"/>
</svg>
