<svg width="51" height="16" viewBox="0 0 51 16" fill="none" xmlns="http://www.w3.org/2000/svg">
<rect x="0.5" y="0.5" width="50" height="15" rx="7.5" fill="url(#paint0_linear_246_1637)"/>
<path d="M18.1923 11.112C17.4883 11.112 16.9283 10.92 16.5123 10.536C16.0963 10.1467 15.8883 9.592 15.8883 8.872V7.528C15.8883 6.808 16.0963 6.256 16.5123 5.872C16.9283 5.48267 17.4883 5.288 18.1923 5.288C18.8963 5.288 19.4563 5.48267 19.8723 5.872C20.2883 6.256 20.4963 6.808 20.4963 7.528V8.872C20.4963 9.592 20.2883 10.1467 19.8723 10.536C19.4563 10.92 18.8963 11.112 18.1923 11.112ZM18.1923 10.168C18.5869 10.168 18.8936 10.0533 19.1123 9.824C19.3309 9.59467 19.4403 9.288 19.4403 8.904V7.496C19.4403 7.112 19.3309 6.80533 19.1123 6.576C18.8936 6.34667 18.5869 6.232 18.1923 6.232C17.8029 6.232 17.4963 6.34667 17.2723 6.576C17.0536 6.80533 16.9443 7.112 16.9443 7.496V8.904C16.9443 9.288 17.0536 9.59467 17.2723 9.824C17.4963 10.0533 17.8029 10.168 18.1923 10.168ZM21.4225 11V5.4H23.7265C24.0785 5.4 24.3879 5.472 24.6545 5.616C24.9265 5.75467 25.1372 5.952 25.2865 6.208C25.4412 6.464 25.5185 6.768 25.5185 7.12V7.232C25.5185 7.57867 25.4385 7.88267 25.2785 8.144C25.1239 8.4 24.9105 8.6 24.6385 8.744C24.3719 8.88267 24.0679 8.952 23.7265 8.952H22.4785V11H21.4225ZM22.4785 7.992H23.6225C23.8732 7.992 24.0759 7.92267 24.2305 7.784C24.3852 7.64533 24.4625 7.456 24.4625 7.216V7.136C24.4625 6.896 24.3852 6.70667 24.2305 6.568C24.0759 6.42933 23.8732 6.36 23.6225 6.36H22.4785V7.992ZM26.2507 11V5.4H29.8507V6.36H27.3067V7.696H29.6267V8.656H27.3067V10.04H29.8987V11H26.2507ZM30.6803 11V5.4H32.6883L33.8003 10.28H33.9443V5.4H34.9843V11H32.9763L31.8643 6.12H31.7203V11H30.6803Z" fill="white"/>
<rect x="0.5" y="0.5" width="50" height="15" rx="7.5" stroke="url(#paint1_linear_246_1637)"/>
<defs>
<linearGradient id="paint0_linear_246_1637" x1="51" y1="8" x2="-1.67638e-07" y2="8" gradientUnits="userSpaceOnUse">
<stop stop-color="#FF9085"/>
<stop offset="1" stop-color="#FB6FBB"/>
</linearGradient>
<linearGradient id="paint1_linear_246_1637" x1="51" y1="8" x2="-1.67638e-07" y2="8" gradientUnits="userSpaceOnUse">
<stop stop-color="#FF9085"/>
<stop offset="1" stop-color="#FB6FBB"/>
</linearGradient>
</defs>
</svg>
