<svg width="18" height="20" viewBox="0 0 18 20" fill="none" xmlns="http://www.w3.org/2000/svg">
<path d="M7.5 0C6.125 0 5 1.125 5 2.5H2.5C1.125 2.5 0 3.625 0 5H17.5C17.5 3.625 16.375 2.5 15 2.5H12.5C12.5 1.125 11.375 0 10 0H7.5ZM2.5 7.5V19.525C2.5 19.8 2.7 20 2.975 20H14.55C14.825 20 15.025 19.8 15.025 19.525V7.5H12.525V16.25C12.525 16.95 11.975 17.5 11.275 17.5C10.575 17.5 10.025 16.95 10.025 16.25V7.5H7.525V16.25C7.525 16.95 6.975 17.5 6.275 17.5C5.575 17.5 5.025 16.95 5.025 16.25V7.5H2.525H2.5Z" fill="#F36F56"/>
</svg>
