<svg xmlns="http://www.w3.org/2000/svg" width="20" height="20" viewBox="0 0 20 20" fill="none">
<path fill-rule="evenodd" clip-rule="evenodd" d="M4.93417 3C4.95604 3 4.97799 3 5 3L15.0658 3C15.9523 2.99995 16.7161 2.99991 17.3278 3.08215C17.9833 3.17028 18.6117 3.36902 19.1213 3.87868C19.631 4.38835 19.8297 5.0167 19.9179 5.67221C20.0001 6.28388 20.0001 7.0477 20 7.9342V15.0658C20.0001 15.9523 20.0001 16.7161 19.9179 17.3278C19.8297 17.9833 19.631 18.6117 19.1213 19.1213C18.6117 19.631 17.9833 19.8297 17.3278 19.9179C16.7161 20.0001 15.9523 20.0001 15.0658 20H4.9342C4.0477 20.0001 3.28388 20.0001 2.67221 19.9179C2.0167 19.8297 1.38835 19.631 0.878684 19.1213C0.369022 18.6117 0.170277 17.9833 0.0821453 17.3278C-9.01893e-05 16.7161 -4.73896e-05 15.9523 2.43991e-06 15.0658L4.8241e-06 8C4.8241e-06 7.97799 3.63201e-06 7.95604 2.43991e-06 7.93417C-4.73896e-05 7.04769 -9.01893e-05 6.28387 0.0821453 5.67221C0.170277 5.0167 0.369022 4.38835 0.878684 3.87868C1.38835 3.36902 2.0167 3.17028 2.67221 3.08215C3.28387 2.99991 4.04769 2.99995 4.93417 3ZM2.93871 5.06431C2.50497 5.12263 2.36902 5.21677 2.2929 5.2929C2.21677 5.36902 2.12263 5.50497 2.06431 5.93871C2.00213 6.40121 2 7.02893 2 8V15C2 15.9711 2.00213 16.5988 2.06431 17.0613C2.12263 17.495 2.21677 17.631 2.2929 17.7071C2.36902 17.7832 2.50497 17.8774 2.93871 17.9357C3.40121 17.9979 4.02893 18 5 18H15C15.9711 18 16.5988 17.9979 17.0613 17.9357C17.495 17.8774 17.631 17.7832 17.7071 17.7071C17.7832 17.631 17.8774 17.495 17.9357 17.0613C17.9979 16.5988 18 15.9711 18 15V8C18 7.02893 17.9979 6.40122 17.9357 5.93871C17.8774 5.50497 17.7832 5.36902 17.7071 5.2929C17.631 5.21677 17.495 5.12263 17.0613 5.06431C16.5988 5.00213 15.9711 5 15 5H5C4.02893 5 3.40122 5.00213 2.93871 5.06431Z" fill="url(#paint0_linear_600_1165)"/>
<path fill-rule="evenodd" clip-rule="evenodd" d="M1 9C1 8.44772 1.44772 8 2 8H18C18.5523 8 19 8.44772 19 9C19 9.55228 18.5523 10 18 10H2C1.44772 10 1 9.55228 1 9Z" fill="url(#paint1_linear_600_1165)"/>
<path fill-rule="evenodd" clip-rule="evenodd" d="M7 14C7 13.4477 7.44772 13 8 13H12C12.5523 13 13 13.4477 13 14C13 14.5523 12.5523 15 12 15H8C7.44772 15 7 14.5523 7 14Z" fill="url(#paint2_linear_600_1165)"/>
<path fill-rule="evenodd" clip-rule="evenodd" d="M10 11C10.5523 11 11 11.4477 11 12L11 16C11 16.5523 10.5523 17 10 17C9.44771 17 9 16.5523 9 16L9 12C9 11.4477 9.44772 11 10 11Z" fill="url(#paint3_linear_600_1165)"/>
<path fill-rule="evenodd" clip-rule="evenodd" d="M6 -2.25177e-07C6.55228 -1.00815e-07 7 0.447715 7 1L7 5C7 5.55228 6.55228 6 6 6C5.44771 6 5 5.55228 5 5L5 1C5 0.447715 5.44772 -3.49539e-07 6 -2.25177e-07Z" fill="url(#paint4_linear_600_1165)"/>
<path fill-rule="evenodd" clip-rule="evenodd" d="M14 -2.25177e-07C14.5523 -1.00815e-07 15 0.447715 15 1L15 5C15 5.55228 14.5523 6 14 6C13.4477 6 13 5.55228 13 5L13 1C13 0.447715 13.4477 -3.49539e-07 14 -2.25177e-07Z" fill="url(#paint5_linear_600_1165)"/>
<defs>
<linearGradient id="paint0_linear_600_1165" x1="20" y1="11.5" x2="-6.57404e-08" y2="11.5" gradientUnits="userSpaceOnUse">
<stop stop-color="#FF9085"/>
<stop offset="1" stop-color="#FB6FBB"/>
</linearGradient>
<linearGradient id="paint1_linear_600_1165" x1="19" y1="9" x2="1" y2="9" gradientUnits="userSpaceOnUse">
<stop stop-color="#FF9085"/>
<stop offset="1" stop-color="#FB6FBB"/>
</linearGradient>
<linearGradient id="paint2_linear_600_1165" x1="13" y1="14" x2="7" y2="14" gradientUnits="userSpaceOnUse">
<stop stop-color="#FF9085"/>
<stop offset="1" stop-color="#FB6FBB"/>
</linearGradient>
<linearGradient id="paint3_linear_600_1165" x1="10" y1="17" x2="10" y2="11" gradientUnits="userSpaceOnUse">
<stop stop-color="#FF9085"/>
<stop offset="1" stop-color="#FB6FBB"/>
</linearGradient>
<linearGradient id="paint4_linear_600_1165" x1="6" y1="6" x2="6" y2="-2.44899e-07" gradientUnits="userSpaceOnUse">
<stop stop-color="#FF9085"/>
<stop offset="1" stop-color="#FB6FBB"/>
</linearGradient>
<linearGradient id="paint5_linear_600_1165" x1="14" y1="6" x2="14" y2="-2.44899e-07" gradientUnits="userSpaceOnUse">
<stop stop-color="#FF9085"/>
<stop offset="1" stop-color="#FB6FBB"/>
</linearGradient>
</defs>
</svg>