<svg width="49" height="16" viewBox="0 0 49 16" fill="none" xmlns="http://www.w3.org/2000/svg">
<path d="M16.7086 11L15.2846 5.4H16.3726L17.5566 10.32H17.6686L18.8526 5.4H19.9406L18.5166 11H16.7086ZM20.6139 11V5.4H21.6699V11H20.6139ZM24.6673 11.112C24.2353 11.112 23.854 11.0347 23.5233 10.88C23.1926 10.7253 22.934 10.504 22.7473 10.216C22.5606 9.928 22.4673 9.58133 22.4673 9.176V8.952H23.5073V9.176C23.5073 9.512 23.6113 9.76533 23.8193 9.936C24.0273 10.1013 24.31 10.184 24.6673 10.184C25.03 10.184 25.2993 10.112 25.4753 9.968C25.6566 9.824 25.7473 9.64 25.7473 9.416C25.7473 9.26133 25.702 9.136 25.6113 9.04C25.526 8.944 25.398 8.86667 25.2273 8.808C25.062 8.744 24.8593 8.68533 24.6193 8.632L24.4353 8.592C24.0513 8.50667 23.7206 8.4 23.4433 8.272C23.1713 8.13867 22.9606 7.96533 22.8113 7.752C22.6673 7.53867 22.5953 7.26133 22.5953 6.92C22.5953 6.57867 22.6753 6.288 22.8353 6.048C23.0006 5.80267 23.23 5.616 23.5233 5.488C23.822 5.35467 24.1713 5.288 24.5713 5.288C24.9713 5.288 25.326 5.35733 25.6353 5.496C25.95 5.62933 26.1953 5.832 26.3713 6.104C26.5526 6.37067 26.6433 6.70667 26.6433 7.112V7.352H25.6033V7.112C25.6033 6.89867 25.5606 6.728 25.4753 6.6C25.3953 6.46667 25.278 6.37067 25.1233 6.312C24.9686 6.248 24.7846 6.216 24.5713 6.216C24.2513 6.216 24.014 6.27733 23.8593 6.4C23.71 6.51733 23.6353 6.68 23.6353 6.888C23.6353 7.02667 23.67 7.144 23.7393 7.24C23.814 7.336 23.9233 7.416 24.0673 7.48C24.2113 7.544 24.3953 7.6 24.6193 7.648L24.8033 7.688C25.2033 7.77333 25.55 7.88267 25.8433 8.016C26.142 8.14933 26.374 8.32533 26.5393 8.544C26.7046 8.76267 26.7873 9.04267 26.7873 9.384C26.7873 9.72533 26.6993 10.0267 26.5233 10.288C26.3526 10.544 26.1073 10.7467 25.7873 10.896C25.4726 11.04 25.0993 11.112 24.6673 11.112ZM27.5749 11V5.4H28.6309V11H27.5749ZM30.9803 11V6.36H29.3483V5.4H33.6683V6.36H32.0363V11H30.9803Z" fill="white"/>
<rect x="0.5" y="0.5" width="48" height="15" rx="7.5" stroke="url(#paint0_linear_246_1640)"/>
<defs>
<linearGradient id="paint0_linear_246_1640" x1="49" y1="8" x2="-1.61064e-07" y2="8" gradientUnits="userSpaceOnUse">
<stop stop-color="#FF9085"/>
<stop offset="1" stop-color="#FB6FBB"/>
</linearGradient>
</defs>
</svg>
